<svg id="wave" style="transform:rotate(180deg); transition: 0.3s" viewBox="0 0 1440 290" version="1.1" xmlns="http://www.w3.org/2000/svg"><defs><linearGradient id="sw-gradient-0" x1="0" x2="0" y1="1" y2="0"><stop stop-color="rgba(20, 30, 48, 1)" offset="0%"></stop><stop stop-color="rgba(36, 59, 85, 1)" offset="100%"></stop></linearGradient></defs><path style="transform:translate(0, 0px); opacity:1" fill="url(#sw-gradient-0)" d="M0,29L1440,0L2880,116L4320,116L5760,145L7200,232L8640,174L10080,174L11520,174L12960,203L14400,232L15840,145L17280,58L18720,58L20160,232L21600,58L23040,29L24480,29L25920,87L27360,232L28800,116L30240,203L31680,261L33120,58L34560,203L34560,290L33120,290L31680,290L30240,290L28800,290L27360,290L25920,290L24480,290L23040,290L21600,290L20160,290L18720,290L17280,290L15840,290L14400,290L12960,290L11520,290L10080,290L8640,290L7200,290L5760,290L4320,290L2880,290L1440,290L0,290Z"></path></svg>