<svg id="wave" style="transform:rotate(180deg); transition: 0.3s" viewBox="0 0 1440 100" version="1.1" xmlns="http://www.w3.org/2000/svg"><defs><linearGradient id="sw-gradient-0" x1="0" x2="0" y1="1" y2="0"><stop stop-color="rgba(20, 30, 48, 1)" offset="0%"></stop><stop stop-color="rgba(36, 59, 85, 1)" offset="100%"></stop></linearGradient></defs><path style="transform:translate(0, 0px); opacity:1" fill="url(#sw-gradient-0)" d="M0,10L1440,0L2880,40L4320,40L5760,50L7200,80L8640,60L10080,60L11520,60L12960,70L14400,80L15840,50L17280,20L18720,20L20160,80L21600,20L23040,10L24480,10L25920,30L27360,80L28800,40L30240,70L31680,90L33120,20L34560,70L34560,100L33120,100L31680,100L30240,100L28800,100L27360,100L25920,100L24480,100L23040,100L21600,100L20160,100L18720,100L17280,100L15840,100L14400,100L12960,100L11520,100L10080,100L8640,100L7200,100L5760,100L4320,100L2880,100L1440,100L0,100Z"></path></svg>