<svg id="wave" style="transform:rotateX(180deg); transition: 0.3s; margin-right: 0px;" viewBox="0 0 1439 489" version="1.1" xmlns="http://www.w3.org/2000/svg"><defs><linearGradient id="sw-gradient-0" x1="0" x2="0" y1="1" y2="0"><stop stop-color="rgba(20, 30, 48, 1)" offset="0%"></stop><stop stop-color="rgba(36, 59, 85, 1)" offset="100%"></stop></linearGradient></defs><path style="transform:translate(0, 0px); opacity:1" fill="url(#sw-gradient-0)" d="M0,294L60,302.2C120,310,240,327,360,294C480,261,600,180,720,130.7C840,82,960,65,1080,49C1200,33,1320,16,1440,16.3C1560,16,1680,33,1800,57.2C1920,82,2040,114,2160,163.3C2280,212,2400,278,2520,253.2C2640,229,2760,114,2880,65.3C3000,16,3120,33,3240,106.2C3360,180,3480,310,3600,334.8C3720,359,3840,278,3960,236.8C4080,196,4200,196,4320,220.5C4440,245,4560,294,4680,294C4800,294,4920,245,5040,212.3C5160,180,5280,163,5400,187.8C5520,212,5640,278,5760,285.8C5880,294,6000,245,6120,187.8C6240,131,6360,65,6480,32.7C6600,0,6720,0,6840,0C6960,0,7080,0,7200,32.7C7320,65,7440,131,7560,171.5C7680,212,7800,229,7920,245C8040,261,8160,278,8280,269.5C8400,261,8520,229,8580,212.3L8640,196L8640,490L8580,490C8520,490,8400,490,8280,490C8160,490,8040,490,7920,490C7800,490,7680,490,7560,490C7440,490,7320,490,7200,490C7080,490,6960,490,6840,490C6720,490,6600,490,6480,490C6360,490,6240,490,6120,490C6000,490,5880,490,5760,490C5640,490,5520,490,5400,490C5280,490,5160,490,5040,490C4920,490,4800,490,4680,490C4560,490,4440,490,4320,490C4200,490,4080,490,3960,490C3840,490,3720,490,3600,490C3480,490,3360,490,3240,490C3120,490,3000,490,2880,490C2760,490,2640,490,2520,490C2400,490,2280,490,2160,490C2040,490,1920,490,1800,490C1680,490,1560,490,1440,490C1320,490,1200,490,1080,490C960,490,840,490,720,490C600,490,480,490,360,490C240,490,120,490,60,490L0,490Z"></path></svg>