<svg id="wave" style="transform:rotate(180deg); transition: 0.3s" viewBox="0 0 1440 490" version="1.1" xmlns="http://www.w3.org/2000/svg"><defs><linearGradient id="sw-gradient-0" x1="0" x2="0" y1="1" y2="0"><stop stop-color="rgba(20, 30, 48, 1)" offset="0%"></stop><stop stop-color="rgba(36, 59, 85, 1)" offset="100%"></stop></linearGradient></defs><path style="transform:translate(0, 0px); opacity:1" fill="url(#sw-gradient-0)" d="M0,98L60,106.2C120,114,240,131,360,130.7C480,131,600,114,720,155.2C840,196,960,294,1080,318.5C1200,343,1320,294,1440,253.2C1560,212,1680,180,1800,204.2C1920,229,2040,310,2160,351.2C2280,392,2400,392,2520,375.7C2640,359,2760,327,2880,318.5C3000,310,3120,327,3240,318.5C3360,310,3480,278,3600,253.2C3720,229,3840,212,3960,179.7C4080,147,4200,98,4320,81.7C4440,65,4560,82,4680,138.8C4800,196,4920,294,5040,334.8C5160,376,5280,359,5400,294C5520,229,5640,114,5760,130.7C5880,147,6000,294,6120,294C6240,294,6360,147,6480,89.8C6600,33,6720,65,6840,65.3C6960,65,7080,33,7200,81.7C7320,131,7440,261,7560,302.2C7680,343,7800,294,7920,277.7C8040,261,8160,278,8280,302.2C8400,327,8520,359,8580,375.7L8640,392L8640,490L8580,490C8520,490,8400,490,8280,490C8160,490,8040,490,7920,490C7800,490,7680,490,7560,490C7440,490,7320,490,7200,490C7080,490,6960,490,6840,490C6720,490,6600,490,6480,490C6360,490,6240,490,6120,490C6000,490,5880,490,5760,490C5640,490,5520,490,5400,490C5280,490,5160,490,5040,490C4920,490,4800,490,4680,490C4560,490,4440,490,4320,490C4200,490,4080,490,3960,490C3840,490,3720,490,3600,490C3480,490,3360,490,3240,490C3120,490,3000,490,2880,490C2760,490,2640,490,2520,490C2400,490,2280,490,2160,490C2040,490,1920,490,1800,490C1680,490,1560,490,1440,490C1320,490,1200,490,1080,490C960,490,840,490,720,490C600,490,480,490,360,490C240,490,120,490,60,490L0,490Z"></path></svg>